<?xml version="1.0" encoding="utf-8"?>
<!-- Generator: Adobe Illustrator 16.0.0, SVG Export Plug-In . SVG Version: 6.00 Build 0)  -->
<!DOCTYPE svg PUBLIC "-//W3C//DTD SVG 1.1//EN" "http://www.w3.org/Graphics/SVG/1.1/DTD/svg11.dtd">
<svg version="1.1" id="Layer_1" xmlns="http://www.w3.org/2000/svg" xmlns:xlink="http://www.w3.org/1999/xlink" x="0px" y="0px"
	 width="300px" height="300px" viewBox="0 0 300 300" enable-background="new 0 0 300 300" xml:space="preserve">
<path fill-rule="evenodd" clip-rule="evenodd" d="M245.4,43.83c0-4.94-0.06-9.3,0.01-13.65c0.21-12.37-5.75-20.98-16.33-26.74
	c-1.12-0.61-2.55-0.85-3.85-0.87c-7.26-0.15-14.54-0.55-21.78-0.15c-10.71,0.59-21.69,12.95-21.5,23.52
	c0.1,5.8,0.02,11.59,0.02,17.64c-21.43,0-42.32,0-63.89,0c0-4.17-0.07-8.34,0.01-12.51c0.19-9.26-2.65-17.12-9.9-23.3
	c-4.49-3.83-9.61-5.74-15.33-5.87C87.31,1.77,81.74,1.95,76.2,2.35C65.46,3.11,54.47,15.3,54.63,25.83c0.08,5.8,0.01,11.6,0.01,18
	c-6.52,0-12.57,0.09-18.61-0.03c-6.54-0.13-12.25,1.51-17.2,6.1c-3.87,3.59-6.22,7.67-6.33,12.9c-0.15,7.01-0.17,14.03-0.17,21.05
	c-0.01,63.57-0.01,127.13,0.01,190.7c0,5.25,0.14,10.38,3.94,14.83c3.94,4.62,8.31,8.06,14.54,8.5c1.85,0.13,3.71,0.1,5.57,0.1
	c75.6,0,151.2-0.12,226.8,0.14c10.59,0.04,18.11-3.84,22.83-12.91c1.38-2.65,1.5-6.17,1.5-9.29c0.08-69.79-0.06-139.58,0.16-209.37
	c0.04-14.16-11.41-23.39-23.43-22.8C258.18,44.08,252.09,43.83,245.4,43.83z M33.12,107.49c1.48-0.07,2.78-0.17,4.07-0.17
	c75.06-0.01,150.11,0.01,225.16-0.07c3.5,0,4.75,0.73,4.74,4.57c-0.14,53.23-0.1,106.45-0.1,159.68c0,5.13-0.01,5.14-5.2,5.14
	c-74.79,0-149.58,0-224.37,0c-1.41,0-2.81,0-4.29,0C33.12,219.95,33.12,163.85,33.12,107.49z M75.9,51.73c0.01,0,0.03,0,0.04,0
	c0-7.8-0.09-15.6,0.04-23.4c0.07-3.91,2.26-5.88,6.21-6.02c1.98-0.07,3.98,0.1,5.96-0.04c6.17-0.43,8.75,2.62,8.62,8.6
	c-0.26,12.29-0.07,24.59-0.08,36.88c0,2.77,0.05,5.56-0.17,8.32c-0.26,3.36-2.24,5.15-5.65,5.22c-2.65,0.05-5.31-0.16-7.94,0.06
	c-5.35,0.45-7.03-2.11-7.02-7.01C75.91,66.79,75.9,59.26,75.9,51.73z M203.24,51.94c0,0,0.01,0,0.01,0c0-7.8-0.09-15.6,0.04-23.4
	c0.06-4.2,2.19-6.13,6.41-6.24c1.98-0.05,3.98,0.12,5.96-0.03c5.79-0.44,8.6,2.6,8.45,8.38c-0.28,10.7-0.08,21.41-0.08,32.12
	c0,3.97,0.1,7.94-0.04,11.9c-0.17,4.89-1.96,6.57-6.75,6.63c-2.38,0.03-4.77,0.03-7.15,0c-5.46-0.05-6.74-1.22-6.81-6.75
	C203.16,67.01,203.24,59.48,203.24,51.94z"/>
<g>
	<g id="XMLID_1_">
		<g>
			<path fill="#337AB7" d="M210.17,140.82c-0.01,10.98,0.03,21.97-0.02,32.96c-0.02,4-1.81,5.68-5.82,5.69
				c-10.9,0.01-21.81-0.04-32.7,0.03c-2.56,0.02-4.62-0.62-5.62-3.12c-0.95-2.39,0.04-4.29,1.79-5.97c3.34-3.19,6.62-6.44,10-9.74
				c-15.35-15.31-42.37-14-56.5,2.21c-3.71,4.26-6.16,9.14-8.17,14.3c-0.67,1.71-1.73,2.37-3.57,2.33
				c-4.3-0.11-8.59-0.03-12.89-0.04c-3.56-0.01-4.42-1.12-3.57-4.55c9.56-38.04,52.65-56.53,86.65-37.08
				c4.19,2.41,8.03,5.43,12.59,8.55c2.74-2.91,5.71-6.11,8.74-9.24c1.62-1.69,3.47-2.82,5.96-1.74
				C209.42,136.45,210.17,138.4,210.17,140.82z"/>
			<path fill="#337AB7" d="M205.19,199.38c2.33,0.04,3.28,1.32,2.73,3.6c-0.57,2.31-1.25,4.61-2.06,6.85
				c-12.93,35.67-53.08,49.01-84.27,31.35c-4.2-2.38-7.99-5.45-12.31-8.43c-2.81,2.86-5.83,5.88-8.78,8.97
				c-1.75,1.83-3.71,2.84-6.19,1.78c-2.36-1-3.01-3.03-3-5.46c0.04-10.91,0-21.81,0.03-32.71c0.01-3.99,1.95-5.97,5.89-5.98
				c10.9-0.02,21.8,0,32.69-0.01c2.43,0,4.47,0.77,5.46,3.08c1,2.33,0.17,4.3-1.61,6.01c-3.34,3.2-6.6,6.47-10.01,9.83
				c16.31,16.02,44.36,13.93,58.01-4.28c2.68-3.57,4.37-7.89,6.42-11.92c0.75-1.48,1.45-2.74,3.38-2.73
				C196.11,199.37,200.65,199.29,205.19,199.38z"/>
		</g>
		<g>
		</g>
	</g>
</g>
</svg>
